HIERARCHY
ROOT Joint1
{
	OFFSET 0.000000 0.000000 0.000000
	CHANNELS 6 Xposition Yposition Zposition Xrotation Yrotation Zrotation
	JOINT Joint2
	{
		OFFSET -0.000000 0.000000 1.456275
		CHANNELS 6 Xposition Yposition Zposition Xrotation Yrotation Zrotation
		JOINT Joint3
		{
			OFFSET -0.000000 0.000002 1.471446
			CHANNELS 6 Xposition Yposition Zposition Xrotation Yrotation Zrotation
			JOINT Joint4
			{
				OFFSET 0.625745 0.000000 0.917755
				CHANNELS 6 Xposition Yposition Zposition Xrotation Yrotation Zrotation
				JOINT Joint5
				{
					OFFSET -0.629534 0.000001 0.940221
					CHANNELS 6 Xposition Yposition Zposition Xrotation Yrotation Zrotation
					JOINT Joint6
					{
						OFFSET -0.000001 0.113772 1.960660
						CHANNELS 6 Xposition Yposition Zposition Xrotation Yrotation Zrotation
						JOINT Joint7
						{
							OFFSET -0.669733 -0.113771 0.388340
							CHANNELS 6 Xposition Yposition Zposition Xrotation Yrotation Zrotation
							End Site
							{
								OFFSET 0.005509 0.005509 0.438980
							}
						}
					}
				}
			}
		}
	}
}
MOTION
Frames: 12
Frame Time: 0.041667
0.000000 0.000000 0.000000 -0.000000 1.019410 0.020185 -0.000000 0.000000 1.456275 0.000000 -44.956916 0.000000 -0.000000 0.000002 1.471445 0.000000 -1.133462 -0.060989 0.625745 0.000000 0.917755 0.000004 135.017089 -0.000001 -0.629534 0.000001 0.940221 0.000000 1.709736 0.005718 -0.000000 0.113772 1.960661 -88.310828 89.972668 -0.004528 -0.669733 -0.113771 0.388341 -0.705482 3.566198 134.981613 
0.000000 0.000000 0.000000 -0.000000 1.019410 0.086677 -0.000000 -0.000000 1.456275 -0.000000 -44.868725 0.000000 -0.000000 0.000002 1.471446 -0.000000 -1.133459 -0.133631 0.625744 0.000000 0.917755 0.000004 134.998867 -0.000001 -0.629533 0.000001 0.940221 -0.000000 1.709736 0.080029 -0.000001 0.113772 1.960661 -88.307625 89.950190 -0.002518 -0.669733 -0.113771 0.388340 -0.706016 3.566198 135.011721 
0.000000 0.000000 0.000000 -0.000000 1.019410 0.198164 -0.000000 0.000000 1.456275 0.000000 -44.720865 -0.000000 -0.000000 0.000002 1.471446 -0.000000 -1.133461 -0.255430 0.625745 0.000000 0.917755 0.000004 134.968322 -0.000001 -0.629534 0.000001 0.940221 -0.000000 1.709737 0.204627 -0.000001 0.113772 1.960660 -88.305918 89.912501 -0.001564 -0.669733 -0.113771 0.388340 -0.706913 3.566198 135.062182 
0.000000 0.000000 0.000000 -0.000000 1.019410 0.355193 -0.000000 0.000000 1.456275 -0.000000 -44.512599 0.000000 -0.000000 0.000002 1.471446 0.000000 -1.133461 -0.426983 0.625745 0.000000 0.917755 0.000004 134.925264 -0.000001 -0.629534 0.000001 0.940221 -0.000000 1.709736 0.380122 -0.000001 0.113772 1.960660 -88.305207 89.859430 -0.000949 -0.669733 -0.113771 0.388340 -0.708176 3.566195 135.133285 
0.000000 0.000000 0.000000 -0.000000 1.019410 0.558311 -0.000000 0.000000 1.456275 -0.000000 -44.243216 -0.000000 -0.000000 0.000002 1.471445 0.000000 -1.133461 -0.648888 0.625745 0.000000 0.917755 0.000004 134.869598 -0.000001 -0.629534 0.000001 0.940221 0.000000 1.709736 0.607126 -0.000001 0.113772 1.960660 -88.304845 89.790766 -0.000659 -0.669733 -0.113771 0.388339 -0.709809 3.566190 135.225246 
0.000000 0.000000 0.000000 -0.000000 1.019410 0.808063 -0.000000 0.000000 1.456275 -0.000000 -43.911976 -0.000000 -0.000001 0.000002 1.471446 0.000000 -1.133459 -0.921742 0.625745 0.000000 0.917755 0.000004 134.801119 -0.000001 -0.629533 0.000001 0.940221 0.000000 1.709736 0.886249 -0.000001 0.113772 1.960660 -88.304470 89.706345 -0.000364 -0.669733 -0.113771 0.388339 -0.711818 3.566180 135.338313 
0.000000 0.000000 0.000000 -0.000000 1.019410 1.104996 -0.000000 -0.000000 1.456275 -0.000000 -43.518161 -0.000000 -0.000000 0.000002 1.471446 -0.000000 -1.133460 -1.246140 0.625745 0.000000 0.917755 0.000004 134.719730 -0.000001 -0.629534 0.000001 0.940221 -0.000000 1.709737 1.218102 -0.000001 0.113772 1.960661 -88.304326 89.605969 -0.000298 -0.669733 -0.113771 0.388339 -0.714204 3.566163 135.472745 
0.000000 0.000000 0.000000 -0.000000 1.019410 1.449658 -0.000000 0.000000 1.456275 -0.000000 -43.061047 -0.000000 -0.000000 0.000002 1.471445 0.000000 -1.133458 -1.622681 0.625745 0.000000 0.917755 0.000004 134.625255 -0.000001 -0.629533 0.000001 0.940221 -0.000000 1.709737 1.603295 -0.000001 0.113772 1.960660 -88.304258 89.489466 -0.000212 -0.669733 -0.113771 0.388339 -0.716977 3.566136 135.628788 
0.000000 0.000000 0.000000 -0.000000 1.019410 1.842594 -0.000000 0.000000 1.456275 0.000000 -42.539907 0.000000 -0.000001 0.000002 1.471446 0.000000 -1.133463 -2.051960 0.625744 0.000000 0.917755 0.000004 134.517543 -0.000001 -0.629533 0.000001 0.940221 -0.000000 1.709736 2.042439 -0.000001 0.113772 1.960661 -88.304217 89.356640 -0.000152 -0.669733 -0.113771 0.388340 -0.720136 3.566097 135.806659 
0.000000 0.000000 0.000000 -0.000000 1.019410 2.284350 -0.000000 0.000000 1.456275 -0.000000 -41.954024 -0.000000 -0.000001 0.000002 1.471446 -0.000000 -1.133460 -2.534578 0.625745 0.000000 0.917755 0.000004 134.396444 -0.000001 -0.629534 0.000001 0.940221 -0.000000 1.709736 2.536144 -0.000001 0.113772 1.960660 -88.304135 89.207311 -0.000109 -0.669733 -0.113771 0.388341 -0.723688 3.566041 136.006661 
0.000000 0.000000 0.000000 -0.000000 1.019410 2.775473 -0.000000 -0.000000 1.456275 -0.000000 -41.302663 0.000000 -0.000000 0.000002 1.471446 0.000000 -1.133461 -3.071126 0.625745 0.000000 0.917755 0.000003 134.261821 -0.000001 -0.629533 0.000001 0.940221 0.000000 1.709737 3.085021 0.000000 0.113772 1.960660 -88.304067 89.041297 -0.000121 -0.669733 -0.113771 0.388339 -0.727636 3.565964 136.228997 
0.000000 0.000000 0.000000 -0.000000 1.019410 3.316509 -0.000000 0.000000 1.456275 -0.000000 -40.585104 -0.000000 -0.000000 0.000002 1.471445 -0.000000 -1.133459 -3.662207 0.625744 0.000000 0.917755 0.000003 134.113510 -0.000001 -0.629534 0.000001 0.940220 -0.000000 1.709737 3.689684 -0.000001 0.113772 1.960661 -88.304053 88.858412 -0.000109 -0.669733 -0.113771 0.388340 -0.731985 3.565862 136.473942 
